<?xml version="1.0" encoding="UTF-8"?>
<svg version="1.1" viewBox="0 0 2000 2000" width="1280" height="1280" xmlns="http://www.w3.org/2000/svg">
<path transform="translate(1082,340)" d="m0 0h15l6 4 10 7 10 4 10 2h11l8-2h9l5 4v6l-4 6 1 4 6 4 7 6 9 5 7 9 4 2 6-1 7-8 9-1 11 4 13 7 8 6 9 11 6 4 11 3 16 1h14l5-2 4-4 4-10 3-9 4-7 6-4 6-2 9 1 5 4 1 3v18l5 5 5 3 11 3 5 4v15l-4 6-11 4-4 5-5 10 2 11 4 8 9 11 5 5 8 11 6 5h6l5-5 7-11 3-3h6l5 5 3 5 4 15 4 10v12l-3 9-8 8h-2l-2 5v10l3 3 9 6 7 9 14 10 6 9 4 3 10 3 6 5 3 6 1 7 2 32 1 2 21 6 7-1h13l8 6 8 7 11 4h9l10 4 5 4 4 5 9 7 8 10 2 9 2 2v6l5 2 1 1 13 1 9 5 8 9 13 18 3 5 4 11 2 12 4 11 5 4 10 6 6 9v12l-4 15-8 16-7 11-9 8-5 3-12 4-9 6-9 8h-2l-5 10 1 7 5 7 5 4 2 6 1 7 9 13 8 11 3 5 6 8 13 18 10 13 8 11 7 8 11 23 6 15 3 8 5 13 5 10 3 4 5 9 7 10 5 8 13 3 5 2 1 3v9l-3 5-4 4-3 1h-18l-9-1-27-1-27-2h-28l2 7 1 2v7l-6 7-14 11-14 13-6 1-8-3-7-8-2-1h-8l-7 7-7 8-4 5-7 14-8 9-8 5-14 5-5 6-1 2h-2l-2 4-7 5-1 2v6l9 10 17 17 9 12 7 16 3 16v16l-5 13-5 9-7 7-4 6-4 10-7 11-10 6-8 4h-11l-6-3-10-8-11-7-13-11-9-6-5 1-1 4 4 5 1 8 1 18-8 20-6 10-6 7v14l2 10v12l-1 2-1 17-3 6-4 3-5 1h-11l-8 3-10 5h-6l-9-5-11-2-14-4h-9l-6 2-5 5-7 8-7 4-7 3-26 3-8 1-5-5-3-7 1-8 3-14 2-8 1-14 4-11 9-13 13-14 2-10 4-21 3-18 2-14 1-2v-22l-4-12-3-5-4-18-6-16-8-9-4-6-7-8-8-2-12-2-4-2-2-4v-15l1-16-8-11-8-23v-24l5-15 7-11 10-9 16-10 3-6v-4l-5-1-16-1-5-1-17-1-7-1-28-1h-24l-4 4-7 12-10 35-6 11-16 17-7 8-4 12 2 16-4 11-8 6-10 5-22 6-17 9-23 13-23 10-22 12-12 4-19 13-16 8-19 7-39 17-20 6-5 2-16 3-13 4-8 1h-10l-24-5-20-7-16-7-16-8-11-6-11-7-11-8-13-8-11-8-13-10-13-12-11-9-13-12-7-6-7-8-8-9-8-10-13-16-12-14-13-18-7-9-10-9-7-8-12-11-10-8-5-2-13-1-16 1-44 1-19 2-28 1-47 1-19 2-24 1-25 3-13 1h-10l-4-2-1-3v-10l15-9 9-4 5-2 7-8 6-9 7-14 5-9 5-13 8-16 5-12 5-9 5-7 5-11 3-7 9-10 9-8 2-3-1-5-8-16-2-7v-19l3-9 3-10 5-8 8-7 5-2h9l10 5 5 3 10 3 10 8 5 5 3 1h37l16-2 12-6 2-2h10l8 1 18-5 6-4 4-5 4-2 8 1 7 2 6-3 1-4-5-5-12-2-14-1-24-7-26-7-24-4-19-1-12-4-6-6v-7l10-18 4-10v-6l-5-4-20-7-21-11-16-10-23-11-6-4v-2h-7l-4-4-16-10-14-10-15-11-11-10-5-5-7-11-5-6-6-9-2-2-3-10-3-5v-2l-4-2-10-10-8-11-5-16-4-7-5-9-7-7-9 1-8 2h-19l-8-4-3-4-1-9 3-7 5-6 1-7-3-8-2-12v-10l2-9 6-9 7-7 10-8 14-8 3-2 21-4h40l29 1 4-4 1-77 4-10 6-4h7l13 5h15l8 5 5 3h23l13 2 8 2h12l16-3 18-2h36l19 2 10 5 10 9 9 9 7 4 13 3 11 1h29l12-1 10-4 8-7 8-14 8-9 7-4 8-4 10-4 9-3 14-5 9-2 18-8 10-4 6-2h16l5 6v6l-3 7v8l4 11 3 5 7 4 10 2h22l11-3 5-3h3v-5l3-3 4-6 7-6 12-7 9-3 3-3-2-17-7-18-1-15 4-13 8-9 10-6 6-2h7l17 7 12 4h13l13-3 18-1 15-3 6-2 13-1h10l17 3 12-1 8-1h9l7 2h8l5-2 27-1z" fill="#FDF8BD"/>
<path transform="translate(1248,605)" d="m0 0h34l19 3 5 2 20 4 19 7 22 11 19 13 22 18 11 12 14 19 8 13 8 16 9 24 4 17 3 20v35l-2 18-4 18-7 21-6 13-11 20-8 10-8 12-7 8 2 4 11 12 7 8 12 14 12 13 7 8 11 12v2l5 1 7-5 5 1 8 7 9 10 7 8 10 11 9 11 16 17 11 12 9 11 14 15 13 15 9 10 7 8 4 2 100 4 32 2 9 2 2 4v9l-3 5-4 4-3 1h-18l-9-1-27-1-27-2h-28l2 7 1 2v7l-6 7-14 11-14 13-6 1-8-3-7-8-2-1h-8l-7 7-7 8-4 5-7 14-8 9-8 5-14 5-5 6-1 2h-2l-2 4-7 5-1 2v6l9 10 17 17 9 12 7 16 3 16v16l-5 13-5 9-7 7-4 6-4 10-7 11-10 6-8 4h-11l-6-3-10-8-11-7-13-11-9-6-5 1-1 4 4 5 1 8 1 18-8 20-6 10-6 7v14l2 10v12l-1 2-1 17-3 6-4 3-5 1h-11l-8 3-10 5h-6l-9-5-11-2-14-4h-9l-6 2-5 5-7 8-7 4-7 3-26 3-8 1-5-5-3-7 1-8 3-14 2-8 1-14 4-11 9-13 13-14 2-10 4-21 3-18 2-14 1-2v-22l-4-12-3-5-4-18-6-16-8-9-4-6-7-8-8-2-12-2-4-2-2-4v-15l1-16-8-11-8-23v-24l5-15 7-11 10-9 16-10 3-6v-4l-5-1-16-1-5-1-17-1-7-1-28-1h-24l-4 4-7 12-10 35-6 11-16 17-7 8-4 12 2 16-4 11-8 6-10 5-22 6-17 9-23 13-23 10-22 12-12 4-19 13-16 8-19 7-39 17-20 6-5 2-16 3-13 4-8 1h-10l-24-5-20-7-16-7-16-8-11-6-11-7-11-8-13-8-11-8-13-10-13-12-11-9-13-12-7-6-7-8-8-9-8-10-13-16-12-14-13-18-7-9-10-9-7-8-12-11-10-8-5-2-13-1-16 1-44 1-19 2-28 1-47 1-19 2-24 1-25 3-13 1h-10l-4-2-1-3v-10l15-9 9-4 6-1 206-9 74-4 40-4 84-13 47-5 34-3 35-2h34l29 2 36 5 47 1 3 5 5-1 30-30 13-10 6-3 5-1h11l8 2 11 7 15 14 17 17 6 5 3-1 2-3 4-1h34l46-6 32-2h26l41 2 53 5 31 4 26 4 45 7 21 3 82 4h11l-11-14-16-17-6-7-6-5-10-13-12-13-9-10-7-8-2-5 1-5 5-6-4-7-12-12-7-8-9-11-7-7-9-11-7-7-9-11h-3l-10 7-18 10-25 11-19 5-24 4-13 1h-14l-24-2-26-5-18-6-18-8-16-9-11-8-14-11-18-18-9-11-12-17-13-25-6-18-6-25-2-13-1-16v-14l2-23 5-22 6-19 12-25 10-15 12-16 9-10 9-9 8-7 18-13 14-8 16-8 21-7 17-4 2-1z" fill="#0F263D"/>
<path transform="translate(902,1146)" d="m0 0h19l7 8v2l4 2 17 10 11 4 29 5 8 1h19l32-6 16-6 12-8 8-7 4-5h31l6 1 35 2 4-1h23l57 4 3 1 17 1 4 1h17l48 1 8 1 36 1 11 1 35 1 17 2 23 1 53 4 17 2 19 2 7 5 9 11 9 10 1 6-5 5-2 3-8 5-3 6v4h2l-2 6-8 14-10 9-12 5-7 3-4 5-1 2h-2l-2 4-7 5-1 2v6l9 10 17 17 9 12 7 16 3 16v16l-5 13-5 9-7 7-4 6-4 10-7 11-10 6-8 4h-11l-6-3-10-8-11-7-13-11-9-6-5 1-1 4 4 5 1 8 1 18-8 20-6 10-6 7v14l2 10v12l-1 2-1 17-3 6-4 3-5 1h-11l-8 3-10 5h-6l-9-5-11-2-14-4h-9l-6 2-5 5-7 8-7 4-7 3-26 3-8 1-5-5-3-7 1-8 3-14 2-8 1-14 4-11 9-13 13-14 2-10 4-21 3-18 2-14 1-2v-22l-4-12-3-5-4-18-6-16-8-9-4-6-7-8-8-2-12-2-4-2-2-4v-15l1-16-8-11-8-23v-24l5-15 7-11 10-9 16-10 3-6v-4l-5-1-16-1-5-1-17-1-7-1-28-1h-24l-4 4-7 12-10 35-6 11-16 17-7 8-4 12 2 16-4-1-2 2-7 3-4 4-7 3-5 3-16 3-10 5-17 10-4 2-1 3-6 2-2 3-12 1-12 6-11 6-8 5-3 2-4-1v-2l-6 2-8 7-4 5-3 5-4 3-25 7-14 5-22 10-10 5-21 6-9 4h-9l-7 2 1 3-4 3-9 1-22 1-10-3-1-2-6-1v2l-5-1-7-4-1-3-5-2-27-11-12-5-5-4-14-7v-2h-2v-2l-4-2-4-4-13-5-12-10-11-8-4-5-8-7-12-12-8-5v-2h-2l-4-4-11-9-2-4-4-2-10-15-2-4h-2l-6-8-8-8-9-12-5-5-7-10-2-1-2-5 1-5-4-2-5-2-4-2v-2l-4-2-7-8-8-8-1-4 17-2 110-5 75-3 53-3 7-1 1-1 56-3 52-2z" fill="#FDF8BC"/>
<path transform="translate(787,959)" d="m0 0h28l26 3 25 5 21 7 24 11 17 10 14 10 10 8 13 12 12 12 18 22 7 10 7-1 9-12 10-13 11-12 12-12 8-7 16-13 18-11 16-8 16-7 15-5h10v2l6 2v-3l5 2 16 9 21 9 17 5 22 4 24 2h14l20-2 25-5 16-5 26-12 20-12 4-3 10 11 7 8 9 10 21 24 11 12 7 8 1 3-3 4h-2l-1 7 4 8 12 12 7 8 9 10 10 13 19 19 7 8 9 11 2 4h-12l-82-4-40-6-30-5-27-4-35-4-44-4-41-2h-26l-32 2-46 6h-34l-4 1-3 4-5-2-29-29-13-10-6-3-6-1h-11l-9 3-9 6-15 14-21 21-5 1-3-5-47-1-36-5-29-2h-34l-46 3-52 5-31 4-58 9-20 3-48 4-59 3-85 4-123 5 6-7 8-12 6-12h3l2-6 6-12 2-6 8-16 4-9 5-8 3-3 33-1 17-2 8-1-1-7-1-3 1-2h14l7 4 2 3h10l25-4 10-3 10-5 17-1 29-7 35-11 36-12 41-13 35-10 36-10 35-8 36-6z" fill="#D4C1BC"/>
<path transform="translate(534,680)" d="m0 0 5 1 6 4 9 7 17 10 16 10 20 11 17 7 24 10 33 12 24 9 24 8 14 5 8 3h8l8-1-1 7-7 12-10 13-3 5-10-1-14-4-12-5-20-11-10-3-30-1-15-5-25-12-13-5-21-1-11-6-11-7-9-3-2 6h7l9 5 12 9 6 2 14 1 19 7 22 10 16 5 9 1h25l16 8 12 7 9 4h12l12 2 2 2v29l-1 7h-8l-15-3-12-5-20-11-15-6-6-1h-24l-9-3-9-4-23-2-20-2-8-4-5-6-2-1 1 9 5 4 6 3 37 4 9 2 8 4 7 2h12l12-1 11 2 16 8 25 13 18 6 10 2h4l11-14 11-13 7-10 7 1 18 7 21 9 8 6 4 4v2l5 2 16 6 14 6 11 8 12 11 2 1v2l4 2 10 9 11 7 7 2 5 6 5 11v2l5-1 4-5v-5l-5-1-3-5-5-7-15-4-5-6-6-9-16-8-8-5-10-12-23-8-9-6-10-8-14-8-20-7-16-6 1-10 3-17 3-5 3 1 5 5 17 7 14 7 14 6 46 23 16 10 16 11 16 13 10 8 8 8 6 5v2l4 2 7 8 8 10 5 6 6 11 5 10 6 25 1 9 10-26 7-17 9-15 9-11 12-13 21-21 6-2h3l6 15 12 23 12 16 9 11 18 18 20 15 1 5-7-3v-2l-13 2-17 6-24 11-18 11-14 11-11 10-8 7-13 13-11 14-12 16-7 1-9-12-14-17-11-12-11-11-11-9-15-11-17-10-16-8-19-8-21-6-24-4-19-2h-28l-30 3-36 6-35 8-47 13-43 13-32 10-35 12-33 10-23 5-16 1-10 5-16 4-19 3h-10l-2-4-4-1-3-2-14-1 1 5v7l-13 3-16 1-29 1-4 4-4 8-3 7-8 16-5 12-6 12h-2l2-6 3-5 5-13 8-16 5-12 5-9 5-7 5-11 3-7 9-10 9-8 2-3-1-5-8-16-2-7v-19l3-9 3-10 5-8 8-7 5-2h9l10 5 5 3 10 3 10 8 5 5 3 1h37l16-2 12-6 2-2h10l8 1 18-5 6-4 4-5 4-2 8 1 7 2 6-3 1-4-5-5-12-2-14-1-24-7-26-7-24-4-19-1-12-4-6-6v-7l10-18 5-11 5-6h2l2-6 7-14 6-9 14-25 13-23 10-18 10-17 11-18 15-23 6-10z" fill="#FDFDFD"/>
<path transform="translate(1260,634)" d="m0 0 31 1 13 3 18 5 14 6 16 8 11 7 14 11 17 17 9 11 8 12 4 9 7 15 7 23 3 13 2 19v18l-3 22-7 26-6 15-12 21-13 16-10 10-4 5-11 9-15 10-16 8-26 10-19 4-12 1h-32l-15-2-20-6-21-8-15-8-13-9-14-12-8-8-9-11-10-14-11-21-7-19-4-13-4-20-1-7v-17l4-24 6-22 7-18 9-16 12-17 11-12 9-9 10-8 13-9 15-8 16-7 24-7 11-2z" fill="#FDFDFD"/>
<path transform="translate(1482,677)" d="m0 0 8 1 14 4 7-1h13l8 6 8 7 11 4h9l10 4 5 4 4 5 9 7 8 10 2 9 2 2v6l5 2 1 1 13 1 9 5 8 9 13 18 3 5 4 11 2 12 4 11 5 4 10 6 6 9v12l-4 15-8 16-7 11-9 8-5 3-12 4-9 6-9 8h-2l-5 10 1 7 5 7 5 4 2 6 1 7 9 13 8 11 3 5 6 8 13 18 10 13 8 11 7 8 11 23 6 15 3 8 5 13 5 10 3 4 5 9 7 10 5 8 2 2-126-5-6-4-11-12-7-8-11-13-8-8-7-8-9-11-16-17-10-11-9-11-14-15-12-14-7-6-6 1-5 4-5-2-9-11-9-9-7-8-9-10-9-11-15-16-5-6 2-4 7-9 10-14 7-10 9-16 9-23 5-17 3-17 1-12v-35l-4-26-6-20-9-22-6-11 1-5 15-8 17-11z" fill="#FDFDFD"/>
<path transform="translate(999,1079)" d="m0 0h11l8 2 11 7 15 14 17 17 6 5 3-1 2-3 4-1h34l46-6 32-2h26l41 2 53 5 31 4 26 4 45 7 21 3 82 4h13l9 11 9 9 7 8 3 4-10-1-23-2-18-2-40-3-23-1-17-2-35-1-11-1-36-1-8-1-50-1h-15l-4-1-17-1-3-1-47-3-10-1h-23l-7 1-32-2-6-1h-31l-9 10-17 11-18 6-28 5h-19l-27-4-16-4-16-8-10-7-7-9h-19l-9 1-52 2-56 3-1 1-7 1-53 3-75 3-110 5-17 1 4 6 16 16v2l8 2 5 4v5l1 5 4 2 8 11v2l4 2 10 13 9 9 2 5h2l14 20 5 5 11 9 3 2v2h2l4 4 6 4 21 21 5 4 12 9 7 6 13 5 8 7v2h2l1 2 16 8 5 3 9 4 29 12 8 7 7 2 1-2 6 1 1 3 12 2 20-1 9-1 3-3v-2l7-3h10l11-5 18-5 14-7 25-11 22-6 10-3 5-4 3-5 7-8 5-4h5l1 2 4-1 9-5 9-6 9-4 6-3 12-1 2-3 6-2 5-5 24-14 6-2 13-2 5-3 8-4 6-5 5-2h4l-1 8-4 6-10 6-6 3-22 6-17 9-23 13-23 10-22 12-12 4-19 13-16 8-19 7-39 17-20 6-5 2-16 3-13 4-8 1h-10l-24-5-20-7-16-7-16-8-11-6-11-7-11-8-13-8-11-8-13-10-13-12-11-9-13-12-7-6-7-8-8-9-8-10-13-16-12-14-13-18-7-9-10-9-7-8-12-11-10-8-5-2-13-1-16 1-44 1-19 2-28 1-47 1-19 2-24 1-25 3-13 1h-10l-4-2-1-3v-10l15-9 9-4 6-1 206-9 74-4 40-4 84-13 47-5 34-3 35-2h34l29 2 36 5 47 1 3 5 5-1 30-30 13-10 6-3z" fill="#3C4D5A"/>
<path transform="translate(1324,1162)" d="m0 0h15l4 1h33l8 1h59l21 1 23 2 8 2 2 2 3 7 2 2v3l4 2 4 8 8 7 2 2 6 2h8l7-4 4 1-1 6-6 9-5 4-12 2-9 4-5 5-4 5-2 11-2 2-12 1-7-1-10-2-15 1-8 5-2 2-1 4v14l3 8 3 3v2l4 2 6 5 7 4 3 3 14 6 13 6v2l5 2 8 4 6 5 1 4 3 1 8 14 2 6 1 14-5 10-10 9h-2v3h-2v2l-3 2-4 12-2 4-5 4-5-1-5-3v-2h-2l-1-2-6-3-11-7-6-4v-2h-2v-2l-3-1-4-4-2-4-8-5-4-1-11-1-5 5-8 7-15 14-4 10 1 10 3 5 2 5 8 10 5 4-1 5-4 8-7 9h-2l-3 10h-3l1 7-1 10 5 9-1 5-9 4h-6l-4-1-2-11-2-6-7-7-8-7-5-1-11-4-7 1-5 3h-2v2h-3v2h-4l-1 2v-2h-3l-1-2v-25l5-40 3-8 8-4 3-5-1-7-3-13-3-9-2-4v-9l2-5-3-6-5-4-2-7 1-7 1-13-2-6-6-2-1-2-5-2-5-11-2-7-4-6-2-4h-2l-5-5-11-10-8-7-5-5-4-5 2-6 3-3 9-4 5-6 5-13 2-3v-11l-2-4v-6h2l2-4 9-7 10-1 4-3 8-1z" fill="#FEF8BC"/>
<path transform="translate(1088,1146)" d="m0 0h31l6 1 35 2 4-1h23l57 4 3 1 17 1 4 1h17l48 1 8 1 36 1 11 1 35 1 17 2 23 1 53 4 17 2 19 2 7 5 9 11 9 10 1 6-5 5-2 3-8 5-3 6v4h2l-2 6-8 14-10 9-12 5-7 3-4 5-1 2h-2l-2 4-7 5-1 2v6l9 10 17 17 9 12 7 16 3 16v16l-5 13-5 9-7 7-4 6-4 10-7 11-10 6-8 4h-11l-6-3-10-8-11-7-13-11-9-6-5 1-1 4 4 5 1 8 1 18-8 20-6 10-6 7v14l2 10v12l-1 2-1 17-3 6-4 3-5 1h-11l-8 3-10 5h-6l-9-5-11-2-14-4h-9l-6 2-5 5-7 8-7 4-7 3-26 3-8 1-5-5-3-7 1-8 3-14 2-8 1-14 4-11 9-13 13-14 2-10 4-21 3-18 2-14 1-2v-22l-4-12-3-5-4-18-6-16-8-9-4-6-7-8-8-2-12-2-4-2-2-4v-15l1-16-8-11-8-23v-24l5-15 7-11 10-9 16-10 3-6v-4l-5-1-16-1-5-1-17-1-7-1-28-1h-24l-4 4-7 12-10 35-5 9-8 7-4 4-3-1 3-4 1-6 10-11 8-16 2-5 1-11 4-7 4-4v-3l-3-2-4-1h-11l-22-2-26-1-4 1zm236 16-8 3-5 1-7 3h-6l-9 7-2 4h-2v6l2 4v11l-6 12-3 7-6 5-7 3-3 3-1 5 6 8 8 6 5 5 11 10 3 3h2l2 4 5 7 2 9 4 8 5 2 1 2 6 2 2 7-1 12-1 7 2 7 6 5 2 6-2 4v9l6 15 3 14-1 6-3 4-8 4-2 7-5 40v25l1 2h3l1 2v-2h4v-2h3v-2l6-2 4-2 7 1 11 4 4 2 13 12 2 6 2 11 4 1 9-1 7-4-1-6-4-7 1-14-1-3h3l3-10h2l9-12 3-7-1-3-7-8-7-9-1-5-2-2-1-10 4-10 9-9 10-8 9-9 13 1 7 4 4 3 2 4 4 4h2v2h2v2l11 7 9 6 3 1 1 2h2v2l6 4 5-1 5-5 4-11 2-4 2-1v-2h2v-3l4-2 9-8 4-9-1-14-5-12-6-9h-2l-1-4-9-7-8-4h-2v-2l-13-6-16-7-3-3-7-4-5-5-3-1-2-4-3-5-1-4v-14l2-5 5-4 4-2 15-1 10 2 7 1 12-1 3-5 1-8 6-7 4-3 8-4 12-2 6-5 6-10-1-5-5 1-5 3h-8l-7-2-5-5-6-7-3-6-3-1-1-4-3-4-2-5-3-2-20-2-9-1-21-1h-59l-8-1h-33l-4-1z" fill="#FEE9AC"/>
<path transform="translate(1260,634)" d="m0 0 31 1 13 3 18 5 14 6 16 8 11 7 14 11 17 17 9 11 8 12-1 4-16 8-14 6-16 6-31 12-26 10-20 7-40 15-18 7-25 9-29 13-14 6-17 9-16 8-11 7-4 2h-10l-4-14-3-19v-17l4-24 6-22 7-18 9-16 12-17 11-12 9-9 10-8 13-9 15-8 16-7 24-7 11-2z" fill="#FDF8BC"/>
<path transform="translate(1486,678)" d="m0 0 7 1 11 3 7-1h13l8 6 8 7 11 4h9l10 4 5 4 4 5 9 7 8 10 2 9 2 2v6l5 2 1 1 13 1 9 5 8 9 13 18 3 5 4 11 2 12 4 11 5 4 10 6 6 9v12l-4 15-8 16-7 11-9 8-5 3-12 4-9 6-9 8h-2l-5 10 1 7 5 7 5 4 2 8-3 3h-11l-13-1-47-3-40-4-29-6-16-3-27-8-15-5-3-3 4-5h2v-2l5-4 10-3 16-3 27-3 18-3 49-5 11-1h10l8-2 17-1 4-3-1-6-9-17-11-17-10-15-6-10-2-5-3-1-3-6-14-23-8-12-7-11-16-27-6-11-8-17-8-18-5-12-1-1v-5z" fill="#FDF8BD"/>
<path transform="translate(300,497)" d="m0 0h4l2 9 2 27 3 4 12 5 13 6 8 3 3 5-1 2h-2v3l-17 12-8 5-4 3h-2v2l-17 11-6 4-5 3-5 5-5 2v2l-11 8-8 8-2 3 1 7 1 6-2 5v17l9 13 6 9 9 6v2l4 2 2 6v19l1 11 6 8 8 6v2l4 1 14 9 28 16 29 15 15 9 13 8 3 1v2l5 1 11 4 23 3 3 1v5l-3 3-8 3 4 4-1 7-4 8h-2l-2 4-3 2-2-6-7-4-17-6-21-11-16-10-23-11-6-4v-2h-7l-4-4-16-10-14-10-15-11-11-10-5-5-7-11-5-6-6-9-2-2-3-10-3-5v-2l-4-2-10-10-8-11-5-16-4-7-5-9-7-7-9 1-8 2h-19l-8-4-2-6 1-7 10 1h22l8-1v-6h2l2-5 5-8h2v-4l3-1 1-5-6 2-5-3-1-3-6-1-5 3-5 1-3-1-2-4v-22l4-4 5-2 10-2 9-7 2-3h2v-2l6-3 4-1h46l11-2h9l4 1 3 4v5h6l10-6-2-6-2-5h-2v-34l1-5z" fill="#FEE9AC"/>
<path transform="translate(1482,677)" d="m0 0h5l-1 7 4 9 9 19 4 9 8 16 11 20 8 13 7 11 11 17 11 18 3 6 3 3 5 7 6 11 7 10 7 11 9 15 5 11-1 4-4 3-17 1-9 2h-9l-42 4-31 4-22 3-13 2-18 3-10 5v2l-5 5h-2l2-4 14-20 9-16 9-23 5-17 3-17 1-12v-35l-4-26-6-20-9-22-6-11 1-5 15-8 17-11z" fill="#FDFDFD"/>
<path transform="translate(1413,944)" d="m0 0 3 1 7 8 10 11 9 11 14 15 7 8 11 12v2l5 1 7-5 5 1 8 7 9 10 7 8 10 11 9 11 16 17 11 12 9 11 14 15 13 15 9 10 7 8 4 2 100 4 32 2 9 2 2 4v9l-3 5-4 4-3 1h-18l-9-1-27-1-27-2h-28l2 7 1 2v7l-6 7-14 11-14 13-6 1-8-3-7-8-2-1h-8l-7 7-7 8-2 2h-3l-1 2v-6l5-8 7-4v-2h2l2-4 3-1-3-7-9-10-7-8v-2l-4-2-9-10-11-12-9-10v-2h-2l-11-14-16-17-6-7-6-5-10-13-12-13-9-10-7-8-2-5 1-5 5-6-4-7-8-8v-3h2v2h2l1-2 9 4v3l7-2 4-6 1-6-4-2-2-4v-2l-8-16-6-5-5-6-6-5-8-7-4-6v-2h-2l-1-5-4-2-3-5z" fill="#0D1623"/>
<path transform="translate(895,424)" d="m0 0 10 3 15 5 8 3 6 3 1 1-1 11-8 30-9 30-16 47-15 38-19 45-11 24-8 18-8 15-15-5-34-13 1-8 12-39 12-33 10-28 10-25 6-16 11-25 15-33 17-33 6-10z" fill="#1D262D"/>
<path transform="translate(1124,1150)" d="m0 0h29l3 3 2 1-4 7-3 3-2 4-1 11-5 12-6 10-9 10-2 7-2 3 4-2 8-8v3l-15 16-7 8-4 12 2 16-4-1-2 2-7 3-4 4-7 3-5 3-16 3-10 5-17 10-4 2-1 3-6 2-2 3-12 1-12 6-11 6-8 5-3 2-4-1v-2l-6 2-8 7-4 5-3 5-4 3-25 7-14 5-22 10-10 5-21 6-9 4h-9l-7 2 1 3-4 3-9 1-22 1-10-3-1-2-6-1v2l-5-1-7-4-1-3-5-2-27-11-12-5-5-4-14-7v-2h-2v-2l-4-2-4-4-13-5-12-10-11-8-4-5-8-7-12-12-8-5v-2h-2l-4-4-11-9-2-4-4-2-10-15-2-4h-2l-6-8-8-8-9-12-5-5-7-10-2-1-2-5 1-5-4-2-5-2-4-2v-2l-4-2-7-8-8-8-1-4 17-2h10v3l8 6 1 3 3-1 1 2 3 1v2h3l3 6 3 9 8 11v2h2v2l3 3 4 5v2h2l8 10v2l3 1 4 6 11 13v2l3 1 5 6v2l4 2v2l4 2 5 4 4 5 8 6 6 5 5 6 8 6v2l5 2 9 7 17 12 20 13 15 9 20 10 16 6 18 7 9 2h16l19-5 18-5 16-6 12-3 12-5 17-8 19-8 10-4 11-9 18-14 8-3 8-1 15-6 12-6 10-3 17-8 16-10 14-6 7-2 6-3h3l1-3v-8l1-4-2-6-1-5 4-4 6-5h2l2-4 4-2 2-4 6-9 3-4h2l2-4 3-4h2l2-6h2l3-11 4-16v-4l-5-1z" fill="#FEE9AC"/>
<path transform="translate(1517,1036)" d="m0 0h8l26 6 33 7 23 4 30 4 29 3 21 1 6 3v3l2 1 6 11 2 9 2 5 6 16 3 5 4 7v2l4 2 4 6 6 5 9 14 2 2-126-5-6-4-11-12-7-8-11-13-8-8-7-8-9-11-16-17-10-11-9-11-6-7z" fill="#D4C1BC"/>
<path transform="translate(779,718)" d="m0 0 26 10 16 6-2 6-18 35-1 8v4l-8-2-3 2-4 16-3 17 10 3 21 7 16 8 9 7 11 8 13 5 12 4 12 14 21 10 6 7 5 8 3 2 13 3 6 8 2 4 5 2 1 5-6 7-4-1-8-16-4-3-9-3-14-11-7-6v-2l-4-2-11-10-10-7-14-6-16-6-5-3v-2l-4-2-5-5-16-8-24-9-9-3-2 5-11 13-9 11-8 10-16-4-15-5-25-13-16-8-11-2-12 1h-12l-12-4-6-3-23-3-20-2-9-5-3-3-1-3v-7l5 3 4 5 7 3 20 2 23 2 13 6 5 1h24l8 2 17 7 10 6 15 7 11 3 15 2v-36l-7-2-8-1h-10l-16-8-14-8-7-3h-29l-15-4-20-8-18-8-9-3-14-1-7-3-11-8-9-5-7-1 2-6 7 1 12 7 10 6 2 1 21 1 13 5 30 14 10 3 30 1 12 4 24 13 16 5 14 3 2-5 10-13 7-12 2-8-7-3 1-4 4-4 6-19 7-25z" fill="#FDE7AB"/>
<path transform="translate(776,1153)" d="m0 0h8v1l-7 1-53 3-75 3-110 5-17 1 4 6 16 16v2l8 2 5 4v5l1 5 4 2 8 11v2l4 2 10 13 9 9 2 5h2l14 20 5 5 11 9 3 2v2h2l4 4 6 4 21 21 5 4 12 9 7 6 13 5 8 7v2h2l1 2 16 8 5 3 9 4 29 12 8 7 7 2 1-2 6 1 1 3 12 2 20-1 9-1 3-3v-2l7-3h10l11-5 18-5 14-7 25-11 22-6 10-3 5-4 3-5 7-8 5-4h5l1 2 4-1 9-5 9-6 9-4 6-3 12-1 2-3 6-2 5-5 24-14 6-2 13-2 5-3 8-4 6-5 5-2h4l-1 8-4 6-10 6-6 3-22 6-17 9-23 13-23 10-22 12-12 4-19 13-16 8-19 7-39 17-20 6-5 2-16 3-13 4-8 1h-10l-24-5-20-7-16-7-16-8-11-6-11-7-11-8-13-8-11-8-13-10-13-12-11-9-13-12-7-6-7-8-8-9-8-10-13-16-12-14-13-18-3-4v-2l2-1-5-9-8-6-7-8-16-16v-3l2-1 29-2 26-1 13-1 74-3 32-2 41-1z" fill="#D3C0BB"/>
<path transform="translate(1564,899)" d="m0 0h15l-5 4-8 7-4 7-6 9 2 5 6 9 3 5 3 3v2l2 1-3 6h11v-7l-7-7v-2l-4-2-1-7h-2v-10l3-7 5 1 1 3 3-2-2 8 1 8 6 7 7 5 4 4 6 2h6l7-1 8 2 2-3 3 9-3 3h-11l-13-1-47-3-40-4-29-6-16-3-27-8-15-5-3-3 4-5h2v-2l5-4 10-3 16-3 27-3 18-3 49-5z" fill="#FEF9BD"/>
<path transform="translate(531,1169)" d="m0 0 5 1 5 3 2 4 1 3 4 1 5 3 7 3 4 4 3 13 4 1 3 5 8 11 1 3h2l1 4 4 1 1 3 3 1 6 8v2l3 1 5 7 5 5 3 6v2h2l6 7 3 3 5 3 13 11 6 5 7 8 4 2 5 5 16 12 11 7 9 6 9 7 4 3v2l6 2 21 12 18 8 20 7 13 5 8 2 7 2h7l8-1v-2l5-3 8-1 9-4 30-10 16-6 9-4 16-6 18-6 9-4 9-9 8-6h2l2-4 8-3 8-2 15-7 10-3 12-5 7-2 8-6 11-7 14-6 5-3 12-1 4-1 4-2h5v4l-7 3-8 2-11 3-5 4-12 6-4 3-3 1-1 2-5 1v2l-10 5-9 1-11 6-7 3-5 5-10 5-3-2-6 1-5 5-4 2-4 7h-2l-1 5-5 1-3 2-24 6-10 4-7 3-3 3-4 2-1 2-18 6-4 2-10 2-7 3-7 1-4 1-10 2-6 4-11 3h-10l-8 1-5-3-6 1-4-4-10 1-4-4-8-4-13-5-18-8-17-10-14-10-5-4-3-1v-2l-5-2-8-4-8-6v-2l-4-2-10-8-7-7-8-7-7-7-3-1v-2l-5-2-9-8-6-4-10-13-11-13-4-7-13-13-7-9v-2h-2l-7-9v-3l-3-1-4-10v-3l-4-1-7-4-1-4-4-1-1-3h-2l-5-5-2-5z" fill="#FEF8BC"/>
<path transform="translate(1259,1185)" d="m0 0h7l5 2 2 9-4 5-10 6-3 1-3 4-8 1v2l-3 1-1 4 1 2-1 5h-3l-1 7v3l-1 5 6 1v2h5l5 5 1 3 9 3 4 5 1 7-2 6 2 1 2 2h9l3-3h2l1-3 1 5 3 1-1 3 5 11 4 12-2 7-4 4 2 3 9 1 5 5 1 3-3 5-5 4-1 7 7 5 2 6v5l6 4 5 10v11l-3 4h-2v2h-2l-1 3-1 11-1 3v4h-3l-1-21-4-9-2-7-3-5-4-18-6-16-8-9-4-6-7-8-8-2-12-2-4-2-2-4v-15l1-16-8-11-8-23 1-15h2v-10l4-11 1-4 12-4 4-3 9-3z" fill="#FEE9AD"/>
<path transform="translate(962,355)" d="m0 0h9v2l5-2v2l2-1 9 1 8 4 2-1 8 1 2-1v2l8-1 6 1 6 3 9 2h9l9-3 3-2h15l2 1 1-2h4v-2l7-3 1-1h7l4 4 9 4 18 6 8 5 4 5 5 3v2l5 2 11 8 12 8 4 4v2h2l7 8 9 8 5 2h5l5-3h2l1-3h2l2-6 5-6h5l3 4v2l-6 3-7 8-9 5-12 1-8-5-5-5-1-3-3-1-7-8-17-12-16-11-8-6-12-6-22-10-9 1-9 4-15 3-14 2h-15l-13-3-1-1-29-2-13-3h-12l-8 2-9 4-17 2-22 2h-20l-15-4-12-3h-7l-2 5 2 9 1 4h2v2l5 2 10 3 4 4 6 14 1 9-3 8-3 3h-2v2l-6 5-10 5-5 4-5 3-15 5h-2l-2 4-5 8h-2v2h-2v2l-8 4-16 6-14 3h-19l-17-3-13-5-9-7-7-10-3-11 1-4v2l3 1 5 13 3 2v2l4 2 9 6 11 4 20 1 24-2v-2l7-3 1-2 9-3 4-4h2l2-13 3-4 9-2 4 1h6l7-3 9-6 11-7 4-6 1-6-3-9-5-5-10-5-1-3h-2l-6-18-2-3v-6l4-4 5-2h16l5 3 9 2 10 1h11l9-1 7-2 18 1 5-1 3-3 5-2z" fill="#FEE9AC"/>
<path transform="translate(1614,762)" d="m0 0 4 1 1 4 8 6 6 7 4 7 3 6 2 8 1 2 1 14 5 15 2 4 11 2h5l2 3-7 21-3 3-6 11-8 6-9 1-13 10-5 3-5 5-5 4-3 5-4 2 2 6 5-3 3-5 7-6 1-2h2v-2l3-1 4-4h3l1-2 2-2 17-3h3l1-3h3l1-7 6-12v-4h3l2-5 6-9 3-1v-6l1-2h3v12l-4 15-8 16-7 11-9 8-5 3-12 4-9 6-9 8h-2l-5 10 1 7 5 7 3 2v5l-9-2-13 1-9-4-5-5-9-8-2-5 1-7v-3l-2-1-1-3-4-1-1 6-1 5-1 6h2l3 8 10 10-1 7h-11l2-6-7-8-6-11-3-4 2-5 4-6 4-7 7-7 5-3h2v-2l9-1 14-1 10-7h2l1-3 14-8 3-2 11-2 6-4 6-11 4-8v-7l-5-1-8-5-8-24-1-13-3-2-5-12-7-10-3-5-2-1v-2l-3-1-1-5z" fill="#FEE9AC"/>
<path transform="translate(1284,1271)" d="m0 0 1 2 5 2 5 7 6 16 4 8v2l6 2 3 5-4 9 2 18 4 2 2 10 3 11h2l2 5 2 8v10l-6 5-2 12-2 4-2 11-3 6h2v5l-3 4-1 7-2 4v8l1 2 1 8 2 4-2 14-11 6-10 4-6 5h-2l1 5-2 6-1 21-3 5 2 6 12-1 7-2 1-6h-2l-8-15 1-8 5-5 5 1v3 14h2l1 3 7 6 1 8-6 4-14 2h-12l-10 1-3 4-4-1v8l-2 2-2-4 1-8 3-14 2-8 1-14 4-11 9-13 13-14 2-10 4-21 3-18 2-14 1-2 1-21 2 3 1 21 2-1-1-4 1-2 1-11 2-3h2v-2l4-4v-11l-4-8v-2l-5-2-2-2v-6l-1-5-4-2-4-3 1-7 5-5 3-5-3-5-5-2h-6l-3-5 5-5 1-5-4-12-5-12 1-2-3-3z" fill="#FEF8BE"/>
<path transform="translate(300,559)" d="m0 0h8l2 1-2 4-9 7-12 6-10 2-5 5-6 8-10 7-11 11-17 9-5 5-10 3-2 4-2 11 2 12-2 3h9l4-4 5 2v4l-5 5-2 5v7l8 4h11l2 2v9l5 4 8 4 4 7-2 3-5 2-4 3-4 1-5-8v-2l-4-2-10-10-8-11-5-16-4-7-5-9-7-7-9 1-8 2h-19l-8-4-1-4 1-2 3-1 36-1 4-3 3-10 12-14 10-8 14-6 16-7 9-4 5-9 3-3 18-2 7-3z" fill="#D3C0BB"/>
<path transform="translate(1613,1145)" d="m0 0 4 1 100 4 32 2 9 2 2 4v9l-3 5-4 4-3 1h-18l-9-1-27-1-27-2h-28v5l-1-4h-2l-3-5-8-8-8-10-6-5z" fill="#455460"/>
<path transform="translate(1339,1490)" d="m0 0h8l4 9 8 4v6l-6 5-13 3-5 4-3 5 1 5 2 3v2l8 1 7-1 3-1 1-5 1-1h9l5 3 2 3 2 9 8-1 4-2 3-12 4-3h11l9 1h8v-9h1v15l-3 6-4 3-5 1h-11l-8 3-10 5h-6l-9-5-11-2-14-4h-9l-6 2-5 5-7 8-7 4-7 3-26 3-8 1-4-4 1-5 2-4 7-4 23-1 9-1 4-3 10-1 2-8-7-8-5-3-5-4-2-7 4-4 7-2 8-7 9-3 7-4z" fill="#D4C1BC"/>
<path transform="translate(1334,420)" d="m0 0 5 1 4 5 3 6v8l-4 10h-2l-3 13-3 6 1 11 7 10 4 4v2h2v2h2l1 4h3l5 6 4 4v2l4 1 7 9 12 9 11 1 6-3h2v-2l8-2 2 4-6 16-4 14-1 16v7l2 7 12 6 1 3 4 2 5 5 4 6 6 6v17l5 3 2 1v2h3l1 2 7 1 4-1 4 3 2 13 1 5-1 2v9l1 1v6l-3 2h-4l-1-23-2-8-12-2-9-6-4-6-3-10 1-1v-6l-5-7v-2l-3-1v-2l-4-1-5-5-4-2-5-5-6-7-1-8v-12l2-13v-9l1-2-2-4-15-1-8-6-5-5v-2l-4-2v-2h-2l-7-8-12-12v-2h-2l-9-13-5-13-1-11 4-13 4-9 1-8-1 1v6l-2-4h-5l-4 4h-2l-1 2-10 3h-15l-13-2-19-2-12-4-5-3v-2l-3-1-3-5 1-3 4 2 3 3 5 1 3 3 9 1v2l5-1v2l4-1h7v2l10-1 2 1 3-1 11 2 10-1 4-1 8-16 3-1z" fill="#FEE9AC"/>
<path transform="translate(239,619)" d="m0 0h5l1 4-3 9v12l1 1v11l3 14 5 3 4 8 2 7 8 7v2l3 1v2l4 2 3 5-1 10 1 2 1 11 4 6 5 7v2h2l5 5 5 4 2 1v2l4 1 8 6 4 2v2l4 1 18 10 20 9 23 13 11 8 12 7 15 6 13 3 3 2-1 3h-10l-12-2-18-8-11-7-17-11-13-5-19-10-14-8-9-6-17-12-10-7-11-9-3-4v-2l-4-1v-8l2-2-1-6-4-1h-9l-4-1 1-4 8-5h2v-9l-1-3h-2l-1-3-4-2v-2l-7-1 1-9-3-6-1-3-9 3-6-1-2-2 1-7h2v-2l5-4 1-6-1-3-9-3-6-3-2-6v-6l2-2h12l4-2 1-6z" fill="#FEF8BC"/>
<path transform="translate(364,931)" d="m0 0h9l10 5 5 3 10 3 3 2v4l-5 2h4l6 1 2 8-6 2-10 2-3 1-3 9-12 15-7 8-4 5-7 8h-4l-4-4-6-12-2-7v-19l3-9 3-10 5-8 8-7z" fill="#FEF9BE"/>
<path transform="translate(779,718)" d="m0 0 26 10 16 6-2 6-18 35-1 8v4l-11-3-21-8-8-4 1-4 4-4 6-19 7-25z" fill="#1C252C"/>
<path transform="translate(1282,1157)" d="m0 0 11 1 10 1v1l-14 1-3 9-7 8v7l2 7-1 7-4 6-3 7-14 2-2 1v8l-3 7-1 5 2 5 12 12 7 8 4 5 6 5-1 4-4 1-1 3h-9l-4-4 1-10-4-7-9-4-5-5-1-3h-5v-2l-6-1v-5-3l2-7h3v-6l-1-3 2-3h3v-2l9-3 3-4 4-1 10-7 1-5-2-6-9-1-5 2-8 3-8 4-7 1-1 8-3 7-1 10h-2v10h-1v-19l5-15 7-11 10-9 16-10 3-6z" fill="#FEF8BD"/>
<path transform="translate(1106,1271)" d="m0 0 2 2-3 7-12 7-17 5-10 3-15 8-23 13-23 10-22 12-12 4-19 13-16 8-19 7-39 17-16 5-10 2h-11l-4-1v-3h2v-3l4-2v3l2-2 4-2v2l10-1 12-5 11-3 15-7-2-2 9-4 11-5 9-3 10-1 20-7 5-2v-3h2l1-5 7-8 4-3 8 2 9-4 8-6 9-4 5-2 3-2 12-2 25-15 14-9 17-3 9-4z" fill="#323940"/>
<path transform="translate(902,444)" d="m0 0h10l5 5v8l-10 24-17 38-17 37-8 18-4 1-4-4 1-8 12-36 15-44 11-33 4-5z" fill="#FAE4AD"/>
<path transform="translate(999,1079)" d="m0 0h11l8 2 11 7 15 14 21 21-1 7-5-1-7-5-11-1-6-3-3-3-5-2h-6l-3 9-6-1v-2l-5-1-3-1v-3l-4-1v-2l-3-1 1-5v-4l3-3 1-3-13 3-7 3h-11v2l-3-1 2-4 12-13 10-6z" fill="#1D252D"/>
<path transform="translate(1490,1291)" d="m0 0h7v2l6 2 11 7 17 17 9 12 2 6 3-2 3 7v5l-2-1v-5l-1 5 1 3v18l1 3-3 8-3 5-8 6h-2v3l-3 1-1 3-5 5-1 4 1 3-4 6-9 7-5 2-3 2h-12l-8-3-4-5v-2l-6-2v-2h-2v-2l-5-1-4-4v-2h3l1-2 12 6v2h3v2h2v2l6 2 6 4 5-1 13-10h2v-10l7-9 4-3 11-11 1-17-2-9-4-11-7-11-7-10-2-4-4-1-5-3-2-1-1-3-3-1v-2l-7-2-5-4v-3h3z" fill="#FDF8BD"/>
<path transform="translate(569,1230)" d="m0 0 5 2 7 9 2 1v2h2l5 8v2l4 2 11 14 9 11 10 9 9 6 1 3 4 2 14 13 11 9 13 10 9 6 12 6 10 9 24 14 19 9 15 7 8 4 3 2 8 1 1-2 5 2 2 2 5 1 34 1v3l-5 2-8 1h-14l-14-1-17-5-25-10-17-8-13-8-7-4-14-10-13-8-11-8-13-10-13-12-11-9-13-12-7-6-7-8-8-9-8-10-13-16-10-12z" fill="#232B33"/>
<path transform="translate(1088,1146)" d="m0 0h31l6 1 35 2 4-1h23l57 4 3 1 17 1 4 1h17l48 1 8 1 36 1 11 1 35 1 17 2 23 1 53 4 17 2 19 2 7 5 2 4-6-1-5 2-13 2h-7l-5-4-6-7-5-3-27-1-23-2-37-2-34-1-30-2h-10l-16-1h-34l-16-2-11 1-9 2-1-4-5-1-16-1-5-1-17-1-7-1-28-1h-24l-4 4-7 12-10 35-5 9-8 7-4 4-3-1 3-4 1-6 10-11 8-16 2-5 1-11 4-7 4-4v-3l-3-2-4-1h-11l-22-2-26-1-4 1z" fill="#D4C1BC"/>
<path transform="translate(782,821)" d="m0 0 7 1 24 8 16 8 9 7 11 8 13 5 12 4 12 14 21 10 6 7 5 8 3 2 13 3 6 8 2 4 5 2 1 5-6 7-4-1-8-16-4-3-9-3-14-11-7-6v-2l-4-2-11-10-10-7-14-6-16-6-5-3v-2l-4-2-5-5-16-8-32-12 2-5z" fill="#13293F"/>
<path transform="translate(1546,1377)" d="m0 0h1l1 6-7 13-7 7-4 6-4 10-7 11-10 6-8 4h-11l-6-3-10-8-11-7-13-11-9-6-5 1-1 4 4 5 1 8v10h-1l-2-7-3-2v-3h-3l-5-5-8-7 1-4 9-7 6-8 7 1 6 9 10 7 10 6 7 4 7 9 5 3h11l12-5 11-7 4-8 2-10 11-11h2l2-4z" fill="#D4C1BC"/>
<path transform="translate(791,1111)" d="m0 0h34l29 2 15 2 1 2-14 1h-15l-17-1h-14l-3 1h-7v2l-8 1h-7l-3 1-32 2h-13l-42 3-19 1-7 1-10 1h-22l3-2 16-3h6v-2l31-4 52-5z" fill="#202931"/>
<path transform="translate(1577,1199)" d="m0 0 1 4-5 5-2 3-8 5-3 6v4h2l-2 6-8 14-10 9-12 5-7 3-4 5-1 2h-2l-2 4-7 5-1 2v6l4 5 3 5 2 4-8-6-6-5-5-2-13-1-10-5-7-7v-2h-2l-1-6 1-1h7l9 4h17l8-4 8-5 4-6 4-10 4-2 7 1 4 1 12-4 4-2 2-10 2-3 2-7 2-6 12-9z" fill="#D4C1BB"/>
<path transform="translate(545,749)" d="m0 0 7 1 12 7 10 6 2 1 21 1 13 5 30 14 10 3 30 1 12 4 24 13 16 5 13 3 1 3-3 1-14-2h-10l-16-8-14-8-7-3h-29l-15-4-20-8-18-8-9-3-14-1-7-3-11-8-9-5-7-1z" fill="#142A3F"/>
<path transform="translate(790,676)" d="m0 0 1 3 6 1 28 11 16 6-4 10-5 8-4 6-7-1-33-13-5-2 2-11 4-16z" fill="#FCE6AC"/>
<path transform="translate(430,463)" d="m0 0h12l6 1 37 1 8 3 5 5-1 2-2-1v2l-5-2-2-1-25-1-36 1-12 2-9 3h-14l-7-3-12-3-10 2-11 4h-7l-5-2-11 1-2 4-4 4-4 1h-9l-4 2h-3l-3-10 1-3 6-1 7 4 8-1 3-1v-2l4-4 1-2 7-1 5 3 3 2h7l15-6 6-2 5 1 3 3 7 3 2-1 9 2 8-1 7-3 6-1 3-2z" fill="#FEE9AC"/>
<path transform="translate(567,805)" d="m0 0 5 3 4 5 7 3 20 2 23 2 13 6 5 1h24l8 2 17 7 10 6 15 7 11 3 14 2 1 3v7l-9-1-18-6-25-13-16-8-11-2-12 1h-12l-12-4-6-3-23-3-20-2-9-5-3-3-1-3z" fill="#162C41"/>
<path transform="translate(1385,961)" d="m0 0 5 5 15 16 9 11 9 9 7 9 5 5v3l-4-2-6-5-2-4-14-7-19-6-27-8-13-3 4-4 17-9 12-8z" fill="#FCFBFB"/>
<path transform="translate(264,744)" d="m0 0 4 2 4 5v3l5 2 5 4 11 8 16 11 2 1v2l6 2 9 5 10 5 13 5 16 8 11 7 8 6 18 11 11 4 23 2 1 4-3 5-4 1-5-2-8-2-15-5-21-11-16-10-23-11-6-4v-2h-7l-4-4-16-10-14-10-15-11-11-10-4-3z" fill="#515D67"/>
<path transform="translate(1184,1113)" d="m0 0h36l23 1 14 1v2h13l22 2v2h21l22 2 27 4 6 2-4 2h-10l-36-3-30-1-23-2-22-1-13-1-12-1-13-2-11-1-7-1-5-1v-2l-3-1z" fill="#1C242B"/>
<path transform="translate(929,384)" d="m0 0 6 2 4 5 1 4v18l-2 15-1 2-7-1-29-11v-5l9-12 9-11 6-5z" fill="#1E272E"/>
<path transform="translate(704,735)" d="m0 0 8 1 10 5 12 10 8 10 1 4h2l7 8v3h-7l-12-5-20-6-18-7-17-6-3-3 10 2v2l8-1 9-15z" fill="#FEE9AC"/>
<path transform="translate(555,1198)" d="m0 0 4 5 1 3 2 1 4 7 3 3v2h2l4 6 12 13 5 5 7 11 10 11 8 11 11 8 8 6v2l4 1 12 12 8 7 9 8 6 4v2l4 2 5 4 12 6v2l5 1 8 7 15 10 19 10 18 7 16 8 1 2 10-1 4 4 6-1 5 3 9-1h9l13-4 4-3 13-2v-1l10-2 8-3 9-2 11-4 2 1-10 5-21 6-9 4h-9l-7 2 1 3-4 3-9 1-22 1-10-3-1-2-6-1v2l-5-1-7-4-1-3-5-2-27-11-12-5-5-4-14-7v-2h-2v-2l-4-2-4-4-13-5-12-10-11-8-4-5-8-7-12-12-8-5v-2h-2l-4-4-11-9-2-4-4-2-10-15-2-4h-2l-6-8-8-8-9-12-5-5-7-10-2-1-2-5z" fill="#FFE9AC"/>
<path transform="translate(1258,1279)" d="m0 0 2 4 1 3 15-3h7l4 5 5 13-1 6-8 1-1-1-9-1v2l-4 2h-2l-21-3-4-2-2-4 1-6 2-4 5-3 7-8z" fill="#D1BFBA"/>
<path transform="translate(1569,1192)" d="m0 0 4 2 1 7-3 5-9 7h-2l-3 13-2 3-1 5-6 5-3-1v2h-2v2l-9 1-2-2-8-1-5 3h-2l-2 10-2 3h-2v3l-12 6-4-1-2-1-7-1v-1l12-3 8-5 2-5 2-7 9-8 2-1h16l6-3 3-4 3-13 1-6 5-4 5-2 4-4z" fill="#FEF8BC"/>
<path transform="translate(1420,1518)" d="m0 0h1v15l-3 6-4 3-5 1h-11l-8 3-10 5h-6l-9-5-11-2-14-4v-2l10-2 3-1 1-5 1-1h9l5 3 2 3 2 9 8-1 4-2 3-12 4-3h11l9 1h8z" fill="#D4C1BC"/>
<path transform="translate(1143,1154)" d="m0 0h4l1 6-1 7-2 4-2 9-3 12-3 1-2 6-9 7-1 2-3 1-2 5h-2l-1 9-3 1-2 5-3 5-4 11-2 15 3 1-1 3-9 4-5 3-1-4 6-9v-10l2-6 1-9 5-5h2l1-5h2l2-4 5-8 2-1 2-7 7-10 3-4 4-16 3-9 1-6 4-1z" fill="#FEF9BD"/>
<path transform="translate(1108,1264)" d="m0 0 3 1-1 8-3 5-1-2 1-4-10 4-6 4-12 4-13 2-14 9-25 15-12 2-4 3-11 4-9 6-4 3-9 2-2-2-4 1-8 7-3 7h-2v3l-8 4-17 6-13 2-17 7-6 3 1 2-16 7-7 3-10 3-11 4h-7l1-4 4-1 10-4 18-5 14-7 25-11 22-6 10-3 5-4 3-5 7-8 5-4h5l1 2 4-1 9-5 9-6 9-4 6-3 12-1 2-3 6-2 5-5 24-14 6-2 13-2 5-3 8-4 6-5 5-2z" fill="#D4C1BC"/>
<path transform="translate(1664,885)" d="m0 0 2 1-7 12-9 6-12 4-9 6-9 8-5 3-4 7-2 5-4 1h-7l-11-4-6-4-1-1v-7l5-2 9 1 6 2h7l9-7 5-6 11-9 11-6 11-1 8-7h2z" fill="#41505B"/>
<path transform="translate(254,722)" d="m0 0 9 1 1 5-3 1v8l3 4 5 2 5 8 4 2 3 4 7 4 10 7 11 7 9 6 8 5 8 4 13 5 24 12 10 7 17 11 13 6 11 2 18 2-1 5-4 8h-2l-2 4-3 2-2-6-4-4 10 2 3-3 1-5-23-2-15-6-17-11-14-10-16-8-11-5-13-5-4-3-12-6v-2l-5-2-17-12-11-8-6-4-3-5-5-5 1 6-4-5-7-9-6-10v-2z" fill="#D4C1BC"/>
<path transform="translate(1427,539)" d="m0 0 4 2v12l-2 5-8 8h-2l-2 5v10l3 3 9 6 7 9 14 10 6 9 4 3 7 4v2l-5 2-2 2-4 1-1 2h-5l-4-5 1-6 2-8h-2l-1-4-5-2-8-7-7-8-4-4v-2l-8-2-3-4v-16l1-11 3-1 2-6 2-3 4-1z" fill="#FCE7AD"/>
<path transform="translate(218,556)" d="m0 0h16l11 1 2 6-8 7-9 4-12 6h-9l-1-3-4-1-10 1-5 1 1-5 5-4 7-4h2v-2l9-6z" fill="#FEF8BC"/>
<path transform="translate(569,1230)" d="m0 0 5 2 7 9 2 1v2h2l5 8v2l4 2 11 14 9 11 10 9 9 6 1 3 4 2 14 13 11 9 13 10 9 6 5 2v1h-5l-11-6v2l4 1 3 5-4-2-13-10-11-9-13-12-11-9-7-7-6-5-7-8-8-9-8-10-13-16-10-12z" fill="#58616B"/>
<path transform="translate(269,574)" d="m0 0 2 1-1 5-4 6-12 9-9 9h-2v2l-8 4-10 4-11 7-7 7-2 3h-2l-2 4-2-1 1-8 3-5 8-11 9-7 7-4 14-5 7-3 9-3 5-6 3-6z" fill="#3B4C59"/>
<path transform="translate(710,431)" d="m0 0 7 1v8l-4 2-1-2-8 1-20 7-37 14-10 5-8 12h-2l-1-3 2-5h2l2-9 3-3 9-5 13-4 6-2v-2l6-3 5-1 9-3 4-1 3 1v-2l8-3 6-1z" fill="#FEE9AC"/>
<path transform="translate(1106,1271)" d="m0 0 2 2-3 7-12 7-17 5-10 3-15 8-23 13-16 7h-2l1-3 8-3 3-2h5l1-4-16 5-10 4h-2v2l-8 4-2 2-3-1 11-8 9-4 5-2 3-2 12-2 25-15 14-9 17-3 9-4z" fill="#44515C"/>
<path transform="translate(781,705)" d="m0 0 7 1 36 14 4 1-1 6-5 9-1-2-6-1-34-13h-3l1-8z" fill="#FCE6AC"/>
<path transform="translate(786,692)" d="m0 0 10 3 37 14-1 6-4 6-7-1-33-13-5-2 2-11z" fill="#1E272E"/>
<path transform="translate(924,383)" d="m0 0h9l6 5 1 5h2l1 4v12l-4 27-2 10h-2v8h-2l1-15-6-3-17-6-14-5-3 1-4 4 1-5 7-11 6-9 4-4 3-5 9-10zm5 1-7 3-10 11-8 11-3 4v5l21 8 11 4h4l2-8 1-9v-18l-3-7-3-3z" fill="#F4DFAF"/>
<path transform="translate(1420,1455)" d="m0 0 4 1-2 6-4 4-4 9v11l4 8 1-9h1l2 12v11l-5 8-2 7-2 1h-6l-2-2-4-2 2-1v-2l-4-1 8-1 3-4 1-10-3-9-3-10 1-5 7-10 3-7z" fill="#FEF9BD"/>
<path transform="translate(1365,438)" d="m0 0h11l3 1v6l-4 6-11 4-4 5-5 10v7l-3 1v-2l-4-1-2-2v-8l3-10 5-9 8-7z" fill="#D4C1BC"/>
<path transform="translate(1340,1494)" d="m0 0h2l3 7 8 4 1 4-7 1-4-2-7 3-5 4-11 3-4 4-5 1-8-6 1-4 12-2 5-8 6-2 8-3z" fill="#3C4D5A"/>
<path transform="translate(1512,689)" d="m0 0 9 3 3 7 5 5 1 4 4 2 8 6 5 2 10-3 6 2 4 3 5 3 6 4 6 9v1h-5l-1 2-7-8-5-5-5-3-1-2-11 2h-6l-9-4-10-9-6-8-5-5-3-5v-2z" fill="#FFE9AC"/>
<path transform="translate(705,743)" d="m0 0 7 1 11 6v2h2v2l5 2 4 7-2 4h-2v2l3 1-8-1-20-7-2-4-4-2 1-5z" fill="#FEF7BB"/>
<path transform="translate(1680,847)" d="m0 0 3 1-2 12-7 17-8 13-5 6v-3l4-7-1 1-10 8-11 1-11 6-13 11-6 7-6 4h-7l-10-3h-9l2-2h9l6 2h7l6-4 7-9 17-13 6-2 13-2 5-4 7-12 9-19z" fill="#D1BFBA"/>
<path transform="translate(1435,800)" d="m0 0h1l2 14 1 3-1 4v16l-1 4-4 10-1 5-3 6-3 7-3 8h-2l-2 5-4 5-5 7h-1l1-7 9-16 7-21 5-21 3-28z" fill="#111A27"/>
<path transform="translate(1230,1244)" d="m0 0 5 2 8 2 11 9 7 6-1 5-4 2v2l-3 2h-7l-3-2v-2h-2l-8-11-3-8z" fill="#D4C1BC"/>
<path transform="translate(906,1367)" d="m0 0h7l-2 3-8 1v3h-4v2h-3v2h-2v2l-16 7-16 5-10 2h-11l-4-1v-3h2v-3l4-2v3l2-2 4-2v2l10-1 12-5 11-3 15-7z" fill="#24303A"/>
<path transform="translate(1365,434)" d="m0 0h12l2 1-1 5-4-1h-9l-7 4-5 6-5 11-1 5v8l5 3v2l4-1 3 9 11 14 5 5 8 11 5 5v3l-5-2-3-3-4-7-20-20-9-12-4-8 1-11 5-15 6-7h2v-2z" fill="#FEE9AE"/>
<path transform="translate(1088,1146)" d="m0 0h31l6 1 35 2h4v2l-4 4-7 12-10 35-5 9-8 7-4 4-3-1 3-4 1-6 10-11 8-16 2-5 1-11 4-7 4-4v-3l-3-2-4-1h-11l-22-2-26-1-4 1z" fill="#D4C1BC"/>
<path transform="translate(1108,1264)" d="m0 0 3 1-1 8-3 5-1-2 1-4-10 4-6 4-12 4-13 2-14 9-25 15-12 2-4 3-11 4-9 6-4 3-6 1 5-5 14-9 9-4 6-3 12-1 2-3 6-2 5-5 24-14 6-2 13-2 5-3 8-4 6-5 5-2z" fill="#D4C1BB"/>
<path transform="translate(155,578)" d="m0 0 3 1 2 3 4 4 1 3 1 13 4 4 12 2 3 4-3 7-5 4-7 2-8-1-5-3-1-1v-6h3l3 4 9 1 5-4v-2l-11-4-4-3-2-13h-4l-1 2-1-1v-12z" fill="#FEE9AC"/>
<path transform="translate(436,450)" d="m0 0h36l19 2 10 5 10 9 9 9 7 4 13 3 11 1h29l12-1 5-1-3 3-8 1h-50l-8-3-7-3-8-5-5-5v-2h-2v-2l-3-1-4-5-6-4-14-2-25-1-21 1-12 1-3 2-14 1h-16l-14-3-14-1 2-2 16 1 12 3h12l16-3z" fill="#FEFEFE"/>
<path transform="translate(1307,1549)" d="m0 0h5v5l-8 6-5 2-27 2h-6l-2-4h2v-3l3-1 1-2 3-1 25-2z" fill="#3C4D5A"/>
<path transform="translate(1514,1174)" d="m0 0 5 1 6 9 2 2h11l12-3 5-2h5l1 5-3 5-21 3-6 2-9-3-6-7v-2h-3l-1-8z" fill="#FEF9BD"/>
<path transform="translate(837,405)" d="m0 0h11l12 4 2 7-3 6-10 4h-7l-1-4h-2l-2-6z" fill="#D4C1BC"/>
<path transform="translate(486,1165)" d="m0 0h16l9 4 8 6 10 10h-3l-10-10-9-6-10-2-22 1-44 1-19 2-28 1-47 1-19 2-24 1-25 3-13 1h-10v-1l33-4 43-3 11-1 41-1 50-3 44-1z" fill="#D4C1BC"/>
<path transform="translate(776,1153)" d="m0 0h8v1l-7 1-53 3-75 3-110 5h-11l2-2 45-2 13-1 74-3 32-2 41-1z" fill="#D4C1BC"/>
<path transform="translate(264,744)" d="m0 0 4 2 4 5v3l5 2 5 4 11 8 16 11 2 1v2l6 2 9 5 2 3-2 1 6 4v3h-3l-4-4-16-10-14-10-15-11-11-10-4-3z" fill="#5D666F"/>
<path transform="translate(1512,1267)" d="m0 0h4v5l-7 6h-4l-2 5-4 1h-15l-8-4-6-5-2-4 7 1 7 3 10-1h7l5-4z" fill="#3E4D59"/>
<path transform="translate(557,494)" d="m0 0h28l6 1 7 2-1 3-6 2-19 1-18-1-12-2-3-3h3v-2h10z" fill="#FFE9AC"/>
<path transform="translate(1296,1352)" d="m0 0 6 1v12l7 1 3 4 2 5v6l-4 4-4 1-5-3-3-10-3-5-2-14z" fill="#D4C1BC"/>
<path transform="translate(325,792)" d="m0 0 5 1 15 6v2l6 1 10 5 11 7 13 9 4 4-6-1-1-3-5 1-12-7-23-11-6-4v-2h-4l-2-4-5-3z" fill="#1C242B"/>
<path transform="translate(365,960)" d="m0 0 3 1v2h7l7 2 1 5-3 4-6-3-8-1-3 5v9l4 1v2l4 1-3 5-4 1-2-6-5-10v-13l4-4z" fill="#FEE9AC"/>
<path transform="translate(1393,1529)" d="m0 0h13l11 2 1 1v5l-5 4-12 1h-6l-2 1h-6l1-4 3-8z" fill="#3C4D5A"/>
<path transform="translate(1341,1479)" d="m0 0h9l10 9 3 6 2 5-2 2-10-5-4-8-2-2h-9l-5 5-9 2h-5l1-5 11-5 8-3z" fill="#FEF9BD"/>
<path transform="translate(760,1383)" d="m0 0 5 1 8 4 3 2 8 1 1-2 5 2 2 2 5 1 34 1v3l-5 2-8 1h-14l-10-1v-2l-8-1-11-3-8-3v-4l-7-3z" fill="#25303A"/>
<path transform="translate(1579,922)" d="m0 0h1l1 7 6 4 11 4h11l3-9 5-6v3l-3 4-1 8 6 9 2 1-1 2-11-3h-10l-6-3-11-7-4-4-1-7z" fill="#D4C1BC"/>
<path transform="translate(1262,1191)" d="m0 0 4 1 1 4-7 4-10 6-3 1v2l-10 3-3-2v-6l14-9 8-3z" fill="#D4C1BC"/>
<path transform="translate(1440,711)" d="m0 0 4 1 8 18 8 24v14l-4-2-2-11-3-8-5-18-7-14z" fill="#121C29"/>
<path transform="translate(837,402)" d="m0 0h11l9 3 5 3 3 5v8l-4 4-9 4-15 5-1 1h-5l1-5 5-5 1-3h3l2 3 9-1 7-3 2-7-1-5-12-3-11-1z" fill="#FEE9AC"/>
<path transform="translate(268,558)" d="m0 0h12l-4 5v1l-9 2-5 2-3 5-2 5-3 2-7 2-5-1v-2l-2-1 4-3h3v-2l5-3 3-5 5-4h4l1-2z" fill="#FEF9BD"/>
<path transform="translate(924,1356)" d="m0 0h10l-3 1v2l-12 5-1 2 6-3h9l-3 2-15 6-18 8-3-1h2v-2h3v-2h4v-3l9-3h-6l-4 2-7-1 3-2 17-8z" fill="#454A4F"/>
<path transform="translate(1274,1318)" d="m0 0 10 3h15l1 1-1 7-6 4-1 5-2 5-2-1-3-8-8-9-3-5z" fill="#D4C1BC"/>
<path transform="translate(1363,1511)" d="m0 0 4 1 3 6 2 2 7 1 5 2 1 4-1 7-2 5-6 1-3-8v-3h-2l-3-5-4-1v-2l-3-1 2-5-3-1 3-1z" fill="#FEF8BC"/>
<path transform="translate(157,592)" d="m0 0 3 1 1 13 4 2 12 5-2 4-4 3-9-1-5-6-4-12v-7z" fill="#D4C1BC"/>
<path transform="translate(1519,1422)" d="m0 0 3 1-1 4-5 5-15 8h-11l-3-1-5-7h15l7-2z" fill="#5C656E"/>
<path transform="translate(1278,1287)" d="m0 0 5 1 4 9v4h-11l-13 2-1-2 1-6h2l1-4 7-3z" fill="#3B4C59"/>
<path transform="translate(375,939)" d="m0 0 7 1v2l9 1v3l3 1-1 3h-6l-2 2-8 2-8-1-2-2 1-5-1-3 7-3z" fill="#FFE9AC"/>
<path transform="translate(1580,743)" d="m0 0 5 2 7 7 8 7 4 2 1 2 5 2v4l-4 1-11-4-7-5v-2l-3-1-5-10z" fill="#FFE9AC"/>
<path transform="translate(1456,1258)" d="m0 0 4 2-2 8 3 5v3l4 2v2l4 2 8 6 4 4-1 1h-6l-5-4-5-2-7-6-5-10v-9z" fill="#FEF9BD"/>
<path transform="translate(1295,1457)" d="m0 0 4 1 4 3 1 8v6l-6 6h-7l-2-1v-7l2-3 1-8z" fill="#FEE9AD"/>
<path transform="translate(196,636)" d="m0 0h3l-1 4-9 1v2l-3 1h-25l-6-2v-3l2-1 32-1z" fill="#3C4D5A"/>
<path transform="translate(1276,1158)" d="m0 0h6l-4 7-11 8-13 6-5 1-1 2h-2l-1 3v-4l5-6 13-8 3-6z" fill="#FEEAAF"/>
<path transform="translate(1438,1444)" d="m0 0 1 2-6 15-6 10-6 7-1 7-4-1-1-5 5-10 6-9 6-11 3-4z" fill="#D4C1BC"/>
<path transform="translate(1664,885)" d="m0 0 2 1-7 12-9 6-12 4-6 4-2-1 4-5 6-3 9-2v-2l-7 1-4 2h-3v2l-6 4-5 2 6-7 5-4 8-4 11-1 8-7h2z" fill="#495762"/>
<path transform="translate(1052,1300)" d="m0 0 2 1-10 6-16 9-16 7h-2l1-3 8-3 3-2h5l1-4-16 5-10 4h-2v2l-8 4-2 2-3-1 11-8 9-4 5-2 3-2 12-2 10-6h2v2l4-2 7-2z" fill="#3C4D5A"/>
<path transform="translate(1428,546)" d="m0 0h3v7l-2 5-8 8h-2l-1 3-1-2h-2v-10l4-8z" fill="#D4C1BC"/>
<path transform="translate(201,537)" d="m0 0h5v3l-3 3-5 1-1 4-7 4-14 1-2 4-3-3h2v-2l5-3 4-4 10-5z" fill="#FFE9AC"/>
<path transform="translate(1546,1244)" d="m0 0 4 1-4 2-1 4-8 5-7-1-2 4-7 2-1-3 3-10 5-2 10 1z" fill="#202931"/>
<path transform="translate(1415,1399)" d="m0 0 2 2-3 4v6l3 4v2l4 1 2 3 3 1 1 3-1 3-6-1-11-8-2-4v-4h-2l1-6h2l1-3z" fill="#FEF9BD"/>
<path transform="translate(1577,1198)" d="m0 0h2l2 6 9 3 5 6 3 2v3l2 1-4-1-7-8-2-1h-8l-7 7-7 8-2 2h-3l-1 2v-6l5-8 7-4v-2h2l2-4 3-1z" fill="#535E67"/>
<path transform="translate(1106,918)" d="m0 0 3 1 3 3 4 2 9 11 2 4 4 2 8 8-1 3 3 3-5-1-20-20-9-11z" fill="#111B2A"/>
<path transform="translate(1149,363)" d="m0 0 6 1 4-1 2 5-1 6 3 1 1 4-2 2-9-1-7-8v-6z" fill="#FEE9AC"/>
<path transform="translate(906,1367)" d="m0 0h7l-2 3-8 1v3h-4v2h-3v2l-2 1h-7l-1 2h-2v2l-7 3h-8l-3-4 16-5 15-7z" fill="#1D2732"/>
<path transform="translate(895,1366)" d="m0 0m-2 1h2v2l4 1-16 7-7 3-10 3-11 4h-7l1-4 4-1 10-4 18-5z" fill="#D1BFBA"/>
<path transform="translate(1577,1199)" d="m0 0 1 4-5 5-2 3-8 5-3 6v4h2l-2 6-8 14-6 6-2-1 2-4 3-2v-4l3-5 3-9 3-8 2-6 12-9z" fill="#C9B9B5"/>
<path transform="translate(966,1328)" d="m0 0v3l-7 8-3 5-4 3-25 7-14 5-13 6-2-1 5-3h2l1-3 11-5 8-3 14-3 10-3 4-2h2l1-4 2-1 4-7z" fill="#FFE9AC"/>
<path transform="translate(1234,1251)" d="m0 0h7l10 8 4 4-1 5-6 1-5-4-6-4-4-8z" fill="#3B4C59"/>
<path transform="translate(1144,1189)" d="m0 0 2 1-3 12-5 9-8 7-4 4-3-1 3-4 1-6 10-11 6-10z" fill="#D2BFBB"/>
<path transform="translate(1585,920)" d="m0 0 9 1 6 2v2l8-1 5-1v2h-2l-2 5-2 2-16-1-4-1-2-6z" fill="#1E272E"/>
<path transform="translate(1136,1211)" d="m0 0v3l-15 16-7 8-5 14-3 3-1-3 3-8 1-7 3-6 12-14 3-2-2 5h2z" fill="#D4C1BC"/>
<path transform="translate(1413,944)" d="m0 0 3 1 7 8 10 11 9 11 11 12-2 1-6-5-5-6-6-5-8-7-4-6v-2h-2l-1-5-4-2-3-5z" fill="#121B27"/>
<path transform="translate(954,1348)" d="m0 0 3 1-6 4-1 3-14 7-13 1-5 2 1-3 9-4h3v-2h3v-2z" fill="#50565D"/>
<path transform="translate(323,447)" d="m0 0 2 2v6l-5 7-4 2-4-1-4-7 1-5 6-2h7z" fill="#FFE9AC"/>
<path transform="translate(1446,1404)" d="m0 0 6 2 10 7 11 8 6 8-7-1-11-8-11-9z" fill="#58626C"/>
<path transform="translate(344,986)" d="m0 0 4 2 2 4 3 3 5 12-3 3-5-2-6-10-3-10z" fill="#D4C1BC"/>
<path transform="translate(1307,1552)" d="m0 0 2 1-3 1-1 3-6 2-14 1-12 2h-4v-4l4-2 14-2 16-1z" fill="#1C242B"/>
<path transform="translate(841,409)" d="m0 0h10l7 2 1 6-5 3-9 1-4-3z" fill="#3C4D5A"/>
<path transform="translate(1373,441)" d="m0 0 1 2h2l-1 5-1 2-11 3-4 2-3 6h-2l3-9 3-6 3-3z" fill="#3C4D5A"/>
<path transform="translate(1544,1341)" d="m0 0h2l1 5 2 1 2 11v16l-3 8h-1v-5h-2l1-9-1-5v-14z" fill="#FEE9AF"/>
<path transform="translate(832,376)" d="m0 0 1 3 3-1v2l4 2 2 2-1 9-2 4-7-2-2-9v-5z" fill="#FEE9AE"/>
<path transform="translate(674,1336)" d="m0 0 5 2 6 3 9 2 8 7-1 2-4-2-3-1v2l4 2 6 4v2l-4-2-16-10-4-4-3-4-3-1z" fill="#2E373F"/>
<path transform="translate(1550,800)" d="m0 0 4 2 10 17 10 13 6 13v2l-3-1-7-11-4-7-2-5-3-1-3-6-8-13z" fill="#FEECAF"/>
<path transform="translate(414,836)" d="m0 0 22 1 1 4-3 5-4 1-10-4-3-3-6-2z" fill="#3C4D5A"/>
<path transform="translate(1106,1271)" d="m0 0 2 2-3 7-9 5-14 2-1-2 8-4h2l2-4z" fill="#202931"/>
<path transform="translate(243,597)" d="m0 0 2 1-5 5-7 4-19 8v-3l5-5 4-3z" fill="#1C242B"/>
<path transform="translate(532,788)" d="m0 0 11 3 17 7 1 2-25-3-5-2-1-4z" fill="#172D42"/>
<path transform="translate(835,1391)" d="m0 0h2v2h15l6-1-2 2-19 4-13 4-8 1h-10l-11-2v-1h23l13-2v-3h-11v-1l13-2z" fill="#8F898A"/>
<path transform="translate(924,383)" d="m0 0h9l6 5 3 10v9l-3 23-1 1-9-1-2-2 10 2 2-17v-18l-3-7-5-3-7 2-7 6-8 10-1-2 3-5 9-10z" fill="#D4C1BC"/>
<path transform="translate(254,722)" d="m0 0 9 1 1 5-3 1-1 7h-4l-5-5-3-5v-2z" fill="#D4C1BC"/>
<path transform="translate(298,438)" d="m0 0h7l13 5h15l8 5 5 3 12 1v1h-13l-9-5-4-2h-16l-9-4h-11l-3 3-3 5-1-2 5-8z" fill="#FEFEFE"/>
<path transform="translate(312,549)" d="m0 0 7 1 9 4v5l-3 3-6 1-2-3v-3l-6-2z" fill="#FEF8BC"/>
<path transform="translate(1024,1311)" d="m0 0h4l-1 4-7 2-2 2-7 2-1 2-7 2-5 1 2-6 20-8z" fill="#182029"/>
<path transform="translate(687,424)" d="m0 0 3 1-7 4-10 2-3 2-10 3-9 3-3 2-7 2-5 3-10 5-6 5 2-4 8-7 11-5 10-4 9-3 14-5 9-2z" fill="#FEFEFE"/>
<path transform="translate(904,447)" d="m0 0 6 1 3 5-1 5-2 2h-6l-4-4 1-6z" fill="#242E37"/>
<path transform="translate(970,343)" d="m0 0h10l8 1 1 2-24 2-6-1-5 3-12-1v-1l15-4z" fill="#FEFEFE"/>
<path transform="translate(1088,1146)" d="m0 0h31l6 1 28 2-4 2h-11l-22-2-26-1-4 1z" fill="#D4C1BC"/>
<path transform="translate(1358,1532)" d="m0 0h6l4 3v8h-12l-1-1v-6z" fill="#3B4C59"/>
<path transform="translate(1152,355)" d="m0 0h9l5 4v6l-2 2-2-6-3-2h-7l-7 2h-9l-7-2v-2h15z" fill="#FEFEFE"/>
<path transform="translate(1082,340)" d="m0 0h15l6 4 10 7 10 4 5 1-1 2-10-2-17-9-7-2-3-2-8-1z" fill="#FEFEFE"/>
<path transform="translate(1435,1394)" d="m0 0 5 1 1 5h2v2l-10 1-2 6-5 1-3-2 1-3 8-7z" fill="#3C4D5A"/>
<path transform="translate(1394,1532)" d="m0 0h10l12 3-2 4h-17l-3-1-1-3z" fill="#1C242B"/>
<path transform="translate(856,342)" d="m0 0h7l17 7 12 4h16v2l-3 2-13-1-4-2-8-2-10-4-4-2h-15l-1-2z" fill="#FEFEFE"/>
<path transform="translate(222,684)" d="m0 0 13 2 1 4 1 7-4 1-5-3-5-6z" fill="#374753"/>
<path transform="translate(1188,399)" d="m0 0 12 6v-2l4-3 3 1-2 6-4 5h-6l-1-4h-2l-4-7z" fill="#FFE9AC"/>
<path transform="translate(1334,1502)" d="m0 0 4 1-4 6h-2v2l-4 2-10 1 3-8 10-2z" fill="#1C242B"/>
<path transform="translate(737,1379)" d="m0 0 8 1 9 5 11 4 17 6 12 3v2l-9-1-15-5-20-8-13-6z" fill="#6F747B"/>
<path transform="translate(842,1383)" d="m0 0h7l-4 5h-2l-1-2-3 1v3l-9 4-10 1h-23v-2l26-1 9-1 3-3v-2z" fill="#D4C1BC"/>
<path transform="translate(825,591)" d="m0 0 1 4-4 13-3 8-2 6-2 5h-2l-1 2-1-7 3-4 1-7h2l1-5 3-6 2-2z" fill="#0D1522"/>
<path transform="translate(1307,1549)" d="m0 0h5v5l-8 6-5 2-16 1v-1l15-2 5-1v-2l4-4-4 1h-16l1-2 14-2z" fill="#616972"/>
<path transform="translate(316,1066)" d="m0 0 1 3-3 5-3 7-8 16-5 12-6 12h-2l2-6 3-5 5-13 8-16 5-12z" fill="#FEFEFE"/>
<path transform="translate(887,1378)" d="m0 0 7 1-3 2-13 6-16 5-4-1 3-1 1-2-7-1 4-2 5-2 5 1v2l15-3v-2h2z" fill="#4C5056"/>
<path transform="translate(984,1335)" d="m0 0 2 1-5 3-10 3-19 13h-2l1-3 5-3-1-2 4-1v-3h2l1-5h1v5l6-4 1-1 10-1z" fill="#676E76"/>
<path transform="translate(344,980)" d="m0 0 7 4 5 10 2 5 1 1v6h-2l-5-11v-2l-3-1-3-5-2-1-1 3-1-6z" fill="#FEE8AC"/>
<path transform="translate(1541,1388)" d="m0 0 2 1-1 6-8 8-7 5v-5l4-6z" fill="#495660"/>
<path transform="translate(278,584)" d="m0 0 6 1-2 5-5 4-5 6-6 2v-4h2v-2l4-2 2-5 2-4z" fill="#FEF9BD"/>
<path transform="translate(1499,693)" d="m0 0 10 1 1 4-5 1-4 4h-5l-3-5v-2z" fill="#FFE9AC"/>
<path transform="translate(1236,1188)" d="m0 0 1 3-3 3-2 10-3 7-1 10h-2v10h-1v-19l5-15z" fill="#FEFACE"/>
<path transform="translate(336,800)" d="m0 0h3v2l6 2 24 12 9 6-1 2-12-7-23-11-6-4z" fill="#6E737A"/>
<path transform="translate(364,931)" d="m0 0h9l10 5 1 2-7-2-12-1-11 5-1 2-3-1 9-8z" fill="#FEFEFE"/>
<path transform="translate(1295,1461)" d="m0 0h3l2 5v8l-3 2h-5v-11l2-1z" fill="#D4C1BB"/>
<path transform="translate(1458,841)" d="m0 0 3 1-1 10-4 13h-3l-1-3v-7l4-2v-9z" fill="#121B28"/>
<path transform="translate(198,535)" d="m0 0h5l-2 3-6 2-4 2-9 4h-2l-2 4-2 2-5-1 5-5 14-8 3-2z" fill="#FEFACE"/>
<path transform="translate(428,1042)" d="m0 0h10l6 1-2 2-12 3h-15v-2l10-2z" fill="#FEF9BD"/>
<path transform="translate(214,532)" d="m0 0h40v1l-7 1h-27l-3 1h-14v-1z" fill="#FEFEFE"/>
<path transform="translate(1542,1245)" d="m0 0 4 1-9 4-8 1h-3l-3 6 5 1v1l-7 2-1-3 3-10 5-2 10 1z" fill="#3C4D5A"/>
<path transform="translate(1038,349)" d="m0 0 6 2 2 4-5 3-6-1-5-2v-3z" fill="#FFE9AC"/>
<path transform="translate(702,1351)" d="m0 0 4 2 10 6 6 4 12 6 17 9-3 1-19-9-4-3-9-5-13-8z" fill="#3C4D5A"/>
<path transform="translate(239,700)" d="m0 0h9l4 4-5 5h-5l-4-6z" fill="#3C4D5A"/>
<path transform="translate(1571,1202)" d="m0 0h2l-2 4-9 7h-2l-3 13-2 3-1 5-2-1 1-6 3-8 3-10 8-4 3-1z" fill="#FFE9AC"/>
<path transform="translate(1138,1202)" d="m0 0h1v8l-10 9-3 3-3-1 8-11 5-6h2z" fill="#3F4F5B"/>
<path transform="translate(1566,1181)" d="m0 0 8 2 4 6v6l-3 1-9-10 2-1z" fill="#122539"/>
<path transform="translate(1350,1519)" d="m0 0 3 1 2 4-5 4-2 3-5-1v-6l5-4z" fill="#FEF9BD"/>
<path transform="translate(1515,1426)" d="m0 0 3 1-3 3-12 6-2 2h-11l-1-2 17-5z" fill="#1C242B"/>
<path transform="translate(937,1355)" d="m0 0h5l-2 4-5 1-2 3-10 1-5 2 1-3 9-4h3v-2z" fill="#121A26"/>
<path transform="translate(712,758)" d="m0 0 7 2 3 3v2h2v3l-11-3-5-3 2-1v-2z" fill="#CCBBB6"/>
<path transform="translate(1052,1300)" d="m0 0 2 1-10 6-11 6-2-1 3-1v-3l-2-1 5-4h2v2l4-2 7-2z" fill="#787A80"/>
<path transform="translate(1519,1422)" d="m0 0 3 1-1 4-5 5-11 6-4-1 4-3 6-3 6-4-2-2z" fill="#6A7077"/>
<path transform="translate(166,639)" d="m0 0h17l3 2-5 2h-16l-5-1v-2z" fill="#1C242B"/>
<path transform="translate(656,1125)" d="m0 0 8 1-4 2-1 2h-22l3-2z" fill="#172430"/>
<path transform="translate(196,636)" d="m0 0h3l-1 4-9 1v2l-7 1 3-3-5-2 1-2h11z" fill="#485661"/>
<path transform="translate(1338,389)" d="m0 0 9 1 5 4 1 8-4-8-15-1-6 4-3 1 2-4 8-4z" fill="#FEFEFE"/>
<path transform="translate(913,1360)" d="m0 0h2l-1 5-12 5-7-1 3-2z" fill="#3B4C59"/>
<path transform="translate(1631,1198)" d="m0 0 3 1-11 9-13 12-6 1-4-2 10-1 1-3 8-7 10-9z" fill="#626A72"/>
<path transform="translate(411,837)" d="m0 0 15 1 8 2-1 4-12-2-10-4z" fill="#1C242B"/>
<path transform="translate(1427,539)" d="m0 0 4 2v5l-10 3-3 3h-2l2-5 1-2 4-1z" fill="#FFE9AC"/>
<path transform="translate(1106,1271)" d="m0 0 2 2-3 7-9 5-2-1 5-5 5-2 1-3-11 6-3-1 8-5z" fill="#3B4B58"/>
<path transform="translate(498,478)" d="m0 0 5 1 5 6 6 4v2l-3 1-8-5-5-6z" fill="#FFE9AC"/>
<path transform="translate(1656,811)" d="m0 0 4 3 3 7 9 6v2l-11-3-2-2-3-9z" fill="#FCE8B1"/>
<path transform="translate(1294,1324)" d="m0 0 2 2-7 6-5-2-3-3v-2z" fill="#3C4D5A"/>
<path transform="translate(1645,898)" d="m0 0 5 1-1 3-11 3-8 4 2-4 3-1v-2z" fill="#1C242B"/>
<path transform="translate(936,349)" d="m0 0h5l-3 3-7 1h-23v-1l10-2z" fill="#FEFEFE"/>
<path transform="translate(1425,551)" d="m0 0 1 2h2v6l-7 2h-3l1-4 2-4z" fill="#3C4C59"/>
<path transform="translate(1231,397)" d="m0 0 5 2 6 3 8 6 5 6-1 3-8-9-14-9z" fill="#FEFEFE"/>
<path transform="translate(245,1166)" d="m0 0 3 1 4 4-1 6h-5l-2-5v-5z" fill="#0E253C"/>
<path transform="translate(826,428)" d="m0 0 4 1-11 6-8 6-7 6 2-5 8-7z" fill="#FEFEFE"/>
<path transform="translate(1664,885)" d="m0 0 2 1-7 12h-4l-4 1v-2l4-1 2-4 5-5h2z" fill="#404D57"/>
<path transform="translate(328,791)" d="m0 0 6 2 17 7 7 4-4 1-1-2-8-2v-2l-10-3-7-3z" fill="#3C4D5A"/>
<path transform="translate(256,725)" d="m0 0 4 1-1 8v3l-4-2-3-5 1-4z" fill="#3B4C59"/>
<path transform="translate(1303,1370)" d="m0 0 4 1 2 3-1 5-5 1-1-2v-7z" fill="#3C4D5A"/>
<path transform="translate(713,1365)" d="m0 0 5 1 6 4 5 2 8 5v2l-6-2-13-8-5-3z" fill="#72767D"/>
<path transform="translate(924,383)" d="m0 0 1 3-8 7-8 10-1-2 3-5 9-10z" fill="#ECD7B2"/>
<path transform="translate(973,1327)" d="m0 0 8 2 6-1-4 3h-6l-2-1v2l-5 1-5 5h-2l2-4z" fill="#3C4D5A"/>
<path transform="translate(1477,654)" d="m0 0h2l1 3v14l-2 6h-1z" fill="#FEE9AC"/>
<path transform="translate(717,412)" d="m0 0h16l5 6v6l-2-4-2-3-9-3h-6z" fill="#FEFEFE"/>
<path transform="translate(1017,344)" d="m0 0h9l7 2h8l4-1v2l-3 2h-8l-6-2-11-2z" fill="#FEFEFE"/>
<path transform="translate(929,384)" d="m0 0 6 2 4 5 1 4v18h-1l-1-16-3-7-1-3-9-1z" fill="#3C4D5A"/>
<path transform="translate(1639,1174)" d="m0 0 2 4 3 4v7l-6 7-4 2v-3l4-2 2-3h2l-1-8-2-2z" fill="#57626C"/>
<path transform="translate(1540,695)" d="m0 0 11 3h9l3 1v2h-12l-6-2-5-3z" fill="#FEFDFC"/>
<path transform="translate(805,450)" d="m0 0h2l-1 8-5 2-1-1v-7z" fill="#FEE9AC"/>
<path transform="translate(545,1196)" d="m0 0 4 2 5 8 1 4-5-2-3-3 1-4z" fill="#4B5964"/>
<path transform="translate(1164,1148)" d="m0 0m-11 1h11v2l-4 4-3 4v-5l-4-2z" fill="#DCCDC9"/>
<path transform="translate(1645,902)" d="m0 0 3 1h-2v2l-12 5-4 2 3-5 7-4z" fill="#7B7D82"/>
<path transform="translate(906,1367)" d="m0 0h7l-2 3-8 1v3l-5 1-1-2 2-3z" fill="#111924"/>
<path transform="translate(1062,346)" d="m0 0 10 1 1 2-7 3h-6v-2l2-1z" fill="#FFE9AC"/>
<path transform="translate(975,1093)" d="m0 0 2 1-8 8-2 4-2-3z" fill="#394A56"/>
<path transform="translate(1291,637)" d="m0 0h10l14 4v1h-7l-7-2-9-1z" fill="#E9D4B4"/>
<path transform="translate(830,365)" d="m0 0h1v7l-1 3 2 1-1 10-1 4-2-13 1-10z" fill="#FEFCE4"/>
<path transform="translate(1409,985)" d="m0 0 7 2 3 4-1 2-2 1-4-2-3-4z" fill="#101825"/>
<path transform="translate(863,480)" d="m0 0 1 3-9 20h-1v-6l6-13h2z" fill="#E6D2B5"/>
<path transform="translate(1024,1311)" d="m0 0h4l-1 4-7 2-4 2 2-4-2-1z" fill="#1E272F"/>
<path transform="translate(1029,1313)" d="m0 0 2 1-14 7-7 2 1-3 8-3 3-2z" fill="#9A9496"/>
<path transform="translate(1586,1206)" d="m0 0 5 2 4 5 3 2v3l2 1-4-1-7-8-9-2v-1z" fill="#808186"/>
<path transform="translate(984,1335)" d="m0 0 2 1-5 3-10 3-5 2 3-5 1-1 10-1z" fill="#A0999A"/>
<path transform="translate(185,541)" d="m0 0m-2 1 2 1-3 3h-2l-2 4-2 2-5-1 5-5z" fill="#FEFBD7"/>
<path transform="translate(742,457)" d="m0 0 5 1 7 3 2 3-7-1-8-4z" fill="#FEEBB0"/>
<path transform="translate(923,1363)" d="m0 0h10l-3 2-13 5h-2l1-3h4v-2z" fill="#77787C"/>
<path transform="translate(1585,717)" d="m0 0 3 1 8 10-1 4v-3l-4-2-3-4v-2l-3-1z" fill="#FEFEFE"/>
<path transform="translate(924,1356)" d="m0 0h10l-3 2-8 3-6 2v-2l3-1-1-2z" fill="#3C4D5A"/>
<path transform="translate(400,955)" d="m0 0 5 1 1 3-2 1h-7v-4z" fill="#FFE9AC"/>
<path transform="translate(1430,755)" d="m0 0 2 2 3 10v3h-2l-3-3 1-6h-2z" fill="#0D1623"/>
<path transform="translate(904,450)" d="m0 0h6l1 5-2 2-3-1v-2h-2l-1-3z" fill="#0D1522"/>
<path transform="translate(897,1370)" d="m0 0 2 1-1 3 1 2h-3v2l-4 1 2-4h-6l4-3z" fill="#27333D"/>
<path transform="translate(1568,702)" d="m0 0 4 2 5 5 7 6-2 2-5-4-6-7-3-3z" fill="#FEFEFE"/>
<path transform="translate(902,412)" d="m0 0 4 5 11 5-3 1-13-5v-5z" fill="#3C4D5A"/>
<path transform="translate(887,1378)" d="m0 0 7 1-3 2-13 6-4-1 7-3h3v-2h2z" fill="#9D9596"/>
<path transform="translate(1537,695)" d="m0 0 4 1v2l4 2 2 4-7-3-3-3z" fill="#FEEAAD"/>
<path transform="translate(907,403)" d="m0 0v3l-5 7-1 5 2 1-4-1 2-9 5-5z" fill="#E2CEB6"/>
<path transform="translate(775,1395)" d="m0 0h7l12 3v2l-9-1-10-3z" fill="#818286"/>
<path transform="translate(1535,1254)" d="m0 0m7-2 2 1-6 4-5 2h-5l2-4h7z" fill="#8E8B8F"/>
<path transform="translate(1149,1173)" d="m0 0 1 3-3 13h-3l2-9z" fill="#DCC9B8"/>
<path transform="translate(1307,1514)" d="m0 0h6l1 3-3 3-5-2z" fill="#1C242B"/>
<path transform="translate(1515,1424)" d="m0 0m-2 1h2v2l-11 6-7 1 1-2 6-2z" fill="#3C4D5A"/>
<path transform="translate(737,1379)" d="m0 0 8 1 9 5v2l-6-2-11-5z" fill="#7F8085"/>
<path transform="translate(687,1348)" d="m0 0 5 1 12 8v2l-4-2-13-8z" fill="#76797F"/>
<path transform="translate(1259,1542)" d="m0 0 2 2-1 14-2-1-1-8z" fill="#FEFEFE"/>
<path transform="translate(1105,1276)" d="m0 0 1 3-10 6-2-1 5-5z" fill="#777A80"/>
<path transform="translate(1032,1306)" d="m0 0m-1 1 3 1v3l-5 3-2-1 1-2-3-1z" fill="#374652"/>
<path transform="translate(1242,1276)" d="m0 0 3 2-3 9-2 4 1-14z" fill="#FEFEFE"/>
<path transform="translate(545,749)" d="m0 0h5l1 3-4 3h-4z" fill="#131F2E"/>
<path transform="translate(1245,1278)" d="m0 0h2l-1 7-4 6-1-4z" fill="#FEF9BD"/>
<path transform="translate(1404,511)" d="m0 0 3 3-2 1-3 5h-3l1-4z" fill="#FEEBAE"/>
<path transform="translate(892,1374)" d="m0 0 3 1-3 4h-8v-2h4v-2z" fill="#0F1723"/>
<path transform="translate(1548,1347)" d="m0 0h1l2 11v10l-2-4-1-6z" fill="#FEFACA"/>
<path transform="translate(1092,1285)" d="m0 0 2 1-8 3-6 2-4-1 6-1v-2z" fill="#A69E9E"/>
<path transform="translate(1512,1430)" d="m0 0m-1 1m-1 1 3 2-8 4-4-1 4-3z" fill="#75797F"/>
<path transform="translate(366,815)" d="m0 0 4 2 8 5-1 2-10-6z" fill="#656D75"/>
<path transform="translate(1303,609)" d="m0 0h7l11 2v2l-8-1-10-2z" fill="#DCC9B8"/>
<path transform="translate(729,429)" d="m0 0h4l-1 9-3-1z" fill="#FFE9AC"/>
<path transform="translate(713,1365)" d="m0 0 5 1 8 5-1 2-11-6z" fill="#7F8085"/>
<path transform="translate(954,1348)" d="m0 0 3 1-7 5h-5l3-1v-3z" fill="#222C35"/>
<path transform="translate(1441,604)" d="m0 0 5 2 5 4 1 4-8-6z" fill="#FEF9BD"/>
<path transform="translate(904,447)" d="m0 0 6 1 2 3h-8l-3 1 1-4z" fill="#2B3741"/>
<path transform="translate(832,383)" d="m0 0 1 4h2v-3l4 2-2 4h-2l-2 1z" fill="#D4C1BC"/>
<path transform="translate(1078,341)" d="m0 0h3v2l-4 2h-13v-1l12-2z" fill="#FEFEFE"/>
<path transform="translate(738,813)" d="m0 0h7l1 3-3 1-6-1z" fill="#1E2935"/>
<path transform="translate(767,464)" d="m0 0h9l-1 3h-7l-2-2z" fill="#FFE9AC"/>
</svg>
